<mxfile host="Electron" agent="Mozilla/5.0 (Windows NT 10.0; Win64; x64) AppleWebKit/537.36 (KHTML, like Gecko) draw.io/26.0.4 Chrome/128.0.6613.186 Electron/32.2.5 Safari/537.36" version="26.0.4">
  <diagram name="Seite-1" id="EGFpPbwpN3NIDaKOlWR-">
    <mxGraphModel dx="574" dy="342" grid="1" gridSize="10" guides="1" tooltips="1" connect="1" arrows="1" fold="1" page="1" pageScale="1" pageWidth="827" pageHeight="1169" math="0" shadow="0">
      <root>
        <mxCell id="0" />
        <mxCell id="1" parent="0" />
        <mxCell id="WsScY0pKGyDFz_iQMc6H-2" style="edgeStyle=orthogonalEdgeStyle;rounded=0;orthogonalLoop=1;jettySize=auto;html=1;entryX=0.5;entryY=0;entryDx=0;entryDy=0;" edge="1" parent="1" source="ZYwUiXDEwUgPDPiaext9-1" target="WsScY0pKGyDFz_iQMc6H-1">
          <mxGeometry relative="1" as="geometry" />
        </mxCell>
        <mxCell id="ZYwUiXDEwUgPDPiaext9-1" value="" style="shape=ellipse;html=1;fillColor=strokeColor;strokeWidth=2;verticalLabelPosition=bottom;verticalAlignment=top;perimeter=ellipsePerimeter;" parent="1" vertex="1">
          <mxGeometry x="390" y="190" width="20" height="20" as="geometry" />
        </mxCell>
        <mxCell id="WsScY0pKGyDFz_iQMc6H-4" style="edgeStyle=orthogonalEdgeStyle;rounded=0;orthogonalLoop=1;jettySize=auto;html=1;entryX=0.5;entryY=0;entryDx=0;entryDy=0;" edge="1" parent="1" source="WsScY0pKGyDFz_iQMc6H-1" target="WsScY0pKGyDFz_iQMc6H-3">
          <mxGeometry relative="1" as="geometry" />
        </mxCell>
        <mxCell id="WsScY0pKGyDFz_iQMc6H-1" value="check reservation" style="rounded=1;whiteSpace=wrap;html=1;" vertex="1" parent="1">
          <mxGeometry x="340" y="270" width="120" height="60" as="geometry" />
        </mxCell>
        <mxCell id="WsScY0pKGyDFz_iQMc6H-6" style="edgeStyle=orthogonalEdgeStyle;rounded=0;orthogonalLoop=1;jettySize=auto;html=1;entryX=1;entryY=0.5;entryDx=0;entryDy=0;" edge="1" parent="1" source="WsScY0pKGyDFz_iQMc6H-3" target="WsScY0pKGyDFz_iQMc6H-5">
          <mxGeometry relative="1" as="geometry" />
        </mxCell>
        <mxCell id="WsScY0pKGyDFz_iQMc6H-7" value="[yes]" style="edgeLabel;html=1;align=center;verticalAlign=middle;resizable=0;points=[];" vertex="1" connectable="0" parent="WsScY0pKGyDFz_iQMc6H-6">
          <mxGeometry x="-0.06" relative="1" as="geometry">
            <mxPoint as="offset" />
          </mxGeometry>
        </mxCell>
        <mxCell id="WsScY0pKGyDFz_iQMc6H-9" style="edgeStyle=orthogonalEdgeStyle;rounded=0;orthogonalLoop=1;jettySize=auto;html=1;entryX=0;entryY=0.5;entryDx=0;entryDy=0;" edge="1" parent="1" source="WsScY0pKGyDFz_iQMc6H-3" target="WsScY0pKGyDFz_iQMc6H-8">
          <mxGeometry relative="1" as="geometry" />
        </mxCell>
        <mxCell id="WsScY0pKGyDFz_iQMc6H-10" value="[no]" style="edgeLabel;html=1;align=center;verticalAlign=middle;resizable=0;points=[];" vertex="1" connectable="0" parent="WsScY0pKGyDFz_iQMc6H-9">
          <mxGeometry x="-0.12" relative="1" as="geometry">
            <mxPoint as="offset" />
          </mxGeometry>
        </mxCell>
        <mxCell id="WsScY0pKGyDFz_iQMc6H-3" value="is car available?" style="rhombus;whiteSpace=wrap;html=1;" vertex="1" parent="1">
          <mxGeometry x="360" y="380" width="80" height="80" as="geometry" />
        </mxCell>
        <mxCell id="WsScY0pKGyDFz_iQMc6H-5" value="confirm reservation" style="rounded=1;whiteSpace=wrap;html=1;" vertex="1" parent="1">
          <mxGeometry x="160" y="390" width="120" height="60" as="geometry" />
        </mxCell>
        <mxCell id="WsScY0pKGyDFz_iQMc6H-12" value="" style="edgeStyle=orthogonalEdgeStyle;rounded=0;orthogonalLoop=1;jettySize=auto;html=1;" edge="1" parent="1" source="WsScY0pKGyDFz_iQMc6H-8" target="WsScY0pKGyDFz_iQMc6H-11">
          <mxGeometry relative="1" as="geometry" />
        </mxCell>
        <mxCell id="WsScY0pKGyDFz_iQMc6H-8" value="offer a higher rated car" style="rounded=1;whiteSpace=wrap;html=1;" vertex="1" parent="1">
          <mxGeometry x="520" y="390" width="120" height="60" as="geometry" />
        </mxCell>
        <mxCell id="WsScY0pKGyDFz_iQMc6H-11" value="change reservation" style="whiteSpace=wrap;html=1;rounded=1;" vertex="1" parent="1">
          <mxGeometry x="520" y="530" width="120" height="60" as="geometry" />
        </mxCell>
        <mxCell id="WsScY0pKGyDFz_iQMc6H-17" style="edgeStyle=orthogonalEdgeStyle;rounded=0;orthogonalLoop=1;jettySize=auto;html=1;entryX=0.5;entryY=0;entryDx=0;entryDy=0;" edge="1" parent="1" source="WsScY0pKGyDFz_iQMc6H-13" target="WsScY0pKGyDFz_iQMc6H-16">
          <mxGeometry relative="1" as="geometry">
            <Array as="points">
              <mxPoint x="400" y="670" />
              <mxPoint x="400" y="670" />
            </Array>
          </mxGeometry>
        </mxCell>
        <mxCell id="WsScY0pKGyDFz_iQMc6H-13" value="" style="line;strokeWidth=4;fillColor=none;align=left;verticalAlign=middle;spacingTop=-1;spacingLeft=3;spacingRight=3;rotatable=0;labelPosition=right;points=[];portConstraint=eastwest;strokeColor=inherit;" vertex="1" parent="1">
          <mxGeometry x="380" y="640" width="40" height="8" as="geometry" />
        </mxCell>
        <mxCell id="WsScY0pKGyDFz_iQMc6H-14" style="edgeStyle=orthogonalEdgeStyle;rounded=0;orthogonalLoop=1;jettySize=auto;html=1;entryX=0.508;entryY=0.494;entryDx=0;entryDy=0;entryPerimeter=0;" edge="1" parent="1" source="WsScY0pKGyDFz_iQMc6H-11" target="WsScY0pKGyDFz_iQMc6H-13">
          <mxGeometry relative="1" as="geometry">
            <Array as="points">
              <mxPoint x="580" y="620" />
              <mxPoint x="400" y="620" />
            </Array>
          </mxGeometry>
        </mxCell>
        <mxCell id="WsScY0pKGyDFz_iQMc6H-15" style="edgeStyle=orthogonalEdgeStyle;rounded=0;orthogonalLoop=1;jettySize=auto;html=1;entryX=0.503;entryY=0.495;entryDx=0;entryDy=0;entryPerimeter=0;" edge="1" parent="1" source="WsScY0pKGyDFz_iQMc6H-5" target="WsScY0pKGyDFz_iQMc6H-13">
          <mxGeometry relative="1" as="geometry">
            <Array as="points">
              <mxPoint x="220" y="620" />
              <mxPoint x="400" y="620" />
            </Array>
          </mxGeometry>
        </mxCell>
        <mxCell id="WsScY0pKGyDFz_iQMc6H-16" value="create pdf with car-data" style="whiteSpace=wrap;html=1;rounded=1;" vertex="1" parent="1">
          <mxGeometry x="340" y="710" width="120" height="60" as="geometry" />
        </mxCell>
      </root>
    </mxGraphModel>
  </diagram>
</mxfile>
